<mxfile host="Electron" agent="Mozilla/5.0 (Windows NT 10.0; Win64; x64) AppleWebKit/537.36 (KHTML, like Gecko) draw.io/26.2.2 Chrome/134.0.6998.178 Electron/35.1.2 Safari/537.36" version="26.2.2">
  <diagram id="C5RBs43oDa-KdzZeNtuy" name="Page-1">
    <mxGraphModel dx="1428" dy="841" grid="0" gridSize="10" guides="1" tooltips="1" connect="1" arrows="1" fold="1" page="1" pageScale="1" pageWidth="1169" pageHeight="827" math="0" shadow="0">
      <root>
        <mxCell id="WIyWlLk6GJQsqaUBKTNV-0" />
        <mxCell id="WIyWlLk6GJQsqaUBKTNV-1" parent="WIyWlLk6GJQsqaUBKTNV-0" />
        <mxCell id="WIyWlLk6GJQsqaUBKTNV-2" value="" style="rounded=0;html=1;jettySize=auto;orthogonalLoop=1;fontSize=11;endArrow=block;endFill=0;endSize=8;strokeWidth=1;shadow=0;labelBackgroundColor=none;edgeStyle=orthogonalEdgeStyle;entryX=0.5;entryY=0;entryDx=0;entryDy=0;" parent="WIyWlLk6GJQsqaUBKTNV-1" source="WIyWlLk6GJQsqaUBKTNV-3" target="Jg6ZexL1LJRDPfhc3TXj-5" edge="1">
          <mxGeometry relative="1" as="geometry" />
        </mxCell>
        <mxCell id="WIyWlLk6GJQsqaUBKTNV-3" value="Launcher" style="rounded=1;whiteSpace=wrap;html=1;fontSize=12;glass=0;strokeWidth=1;shadow=0;" parent="WIyWlLk6GJQsqaUBKTNV-1" vertex="1">
          <mxGeometry x="630" y="50" width="120" height="40" as="geometry" />
        </mxCell>
        <mxCell id="WIyWlLk6GJQsqaUBKTNV-4" value="performance/validate" style="rounded=0;html=1;jettySize=auto;orthogonalLoop=1;fontSize=11;endArrow=block;endFill=0;endSize=8;strokeWidth=1;shadow=0;labelBackgroundColor=none;edgeStyle=orthogonalEdgeStyle;" parent="WIyWlLk6GJQsqaUBKTNV-1" source="WIyWlLk6GJQsqaUBKTNV-6" edge="1">
          <mxGeometry x="0.0122" y="60" relative="1" as="geometry">
            <mxPoint y="-2" as="offset" />
            <mxPoint x="690" y="340" as="targetPoint" />
          </mxGeometry>
        </mxCell>
        <mxCell id="WIyWlLk6GJQsqaUBKTNV-5" value="anonymize" style="edgeStyle=orthogonalEdgeStyle;rounded=0;html=1;jettySize=auto;orthogonalLoop=1;fontSize=11;endArrow=block;endFill=0;endSize=8;strokeWidth=1;shadow=0;labelBackgroundColor=none;" parent="WIyWlLk6GJQsqaUBKTNV-1" source="WIyWlLk6GJQsqaUBKTNV-6" target="WIyWlLk6GJQsqaUBKTNV-7" edge="1">
          <mxGeometry y="10" relative="1" as="geometry">
            <mxPoint as="offset" />
          </mxGeometry>
        </mxCell>
        <mxCell id="WIyWlLk6GJQsqaUBKTNV-6" value="command" style="rhombus;whiteSpace=wrap;html=1;shadow=0;fontFamily=Helvetica;fontSize=12;align=center;strokeWidth=1;spacing=6;spacingTop=-4;" parent="WIyWlLk6GJQsqaUBKTNV-1" vertex="1">
          <mxGeometry x="640" y="220" width="100" height="80" as="geometry" />
        </mxCell>
        <mxCell id="WIyWlLk6GJQsqaUBKTNV-7" value="Anonymizer" style="rounded=1;whiteSpace=wrap;html=1;fontSize=12;glass=0;strokeWidth=1;shadow=0;" parent="WIyWlLk6GJQsqaUBKTNV-1" vertex="1">
          <mxGeometry x="820" y="240" width="120" height="40" as="geometry" />
        </mxCell>
        <mxCell id="Jg6ZexL1LJRDPfhc3TXj-14" value="" style="edgeStyle=orthogonalEdgeStyle;rounded=0;orthogonalLoop=1;jettySize=auto;html=1;" edge="1" parent="WIyWlLk6GJQsqaUBKTNV-1" source="WIyWlLk6GJQsqaUBKTNV-11" target="Jg6ZexL1LJRDPfhc3TXj-13">
          <mxGeometry relative="1" as="geometry" />
        </mxCell>
        <mxCell id="Jg6ZexL1LJRDPfhc3TXj-25" value="create_report" style="edgeLabel;html=1;align=center;verticalAlign=middle;resizable=0;points=[];" vertex="1" connectable="0" parent="Jg6ZexL1LJRDPfhc3TXj-14">
          <mxGeometry x="-0.23" y="-3" relative="1" as="geometry">
            <mxPoint x="3" y="-13" as="offset" />
          </mxGeometry>
        </mxCell>
        <mxCell id="Jg6ZexL1LJRDPfhc3TXj-73" value="" style="edgeStyle=orthogonalEdgeStyle;rounded=0;orthogonalLoop=1;jettySize=auto;html=1;" edge="1" parent="WIyWlLk6GJQsqaUBKTNV-1" source="WIyWlLk6GJQsqaUBKTNV-11" target="Jg6ZexL1LJRDPfhc3TXj-7">
          <mxGeometry relative="1" as="geometry">
            <Array as="points">
              <mxPoint x="670" y="410" />
              <mxPoint x="670" y="410" />
            </Array>
          </mxGeometry>
        </mxCell>
        <mxCell id="Jg6ZexL1LJRDPfhc3TXj-74" value="validate" style="edgeLabel;html=1;align=center;verticalAlign=middle;resizable=0;points=[];" vertex="1" connectable="0" parent="Jg6ZexL1LJRDPfhc3TXj-73">
          <mxGeometry x="0.0084" y="2" relative="1" as="geometry">
            <mxPoint x="-32" y="10" as="offset" />
          </mxGeometry>
        </mxCell>
        <mxCell id="WIyWlLk6GJQsqaUBKTNV-11" value="validation" style="rounded=1;whiteSpace=wrap;html=1;fontSize=12;glass=0;strokeWidth=1;shadow=0;" parent="WIyWlLk6GJQsqaUBKTNV-1" vertex="1">
          <mxGeometry x="630" y="340" width="120" height="40" as="geometry" />
        </mxCell>
        <mxCell id="Jg6ZexL1LJRDPfhc3TXj-0" value="compile" style="edgeStyle=orthogonalEdgeStyle;rounded=0;html=1;jettySize=auto;orthogonalLoop=1;fontSize=11;endArrow=block;endFill=0;endSize=8;strokeWidth=1;shadow=0;labelBackgroundColor=none;exitX=0;exitY=0.5;exitDx=0;exitDy=0;" edge="1" parent="WIyWlLk6GJQsqaUBKTNV-1" target="Jg6ZexL1LJRDPfhc3TXj-1" source="WIyWlLk6GJQsqaUBKTNV-6">
          <mxGeometry x="0.4286" y="-10" relative="1" as="geometry">
            <mxPoint as="offset" />
            <mxPoint x="620" y="250" as="sourcePoint" />
            <Array as="points">
              <mxPoint x="640" y="220" />
            </Array>
          </mxGeometry>
        </mxCell>
        <mxCell id="Jg6ZexL1LJRDPfhc3TXj-1" value="prepare_tool" style="rounded=1;whiteSpace=wrap;html=1;fontSize=12;glass=0;strokeWidth=1;shadow=0;" vertex="1" parent="WIyWlLk6GJQsqaUBKTNV-1">
          <mxGeometry x="420" y="200" width="120" height="40" as="geometry" />
        </mxCell>
        <mxCell id="Jg6ZexL1LJRDPfhc3TXj-2" value="generate" style="edgeStyle=orthogonalEdgeStyle;rounded=0;html=1;jettySize=auto;orthogonalLoop=1;fontSize=11;endArrow=block;endFill=0;endSize=8;strokeWidth=1;shadow=0;labelBackgroundColor=none;entryX=1;entryY=0.5;entryDx=0;entryDy=0;" edge="1" parent="WIyWlLk6GJQsqaUBKTNV-1" target="Jg6ZexL1LJRDPfhc3TXj-3">
          <mxGeometry x="0.375" y="-10" relative="1" as="geometry">
            <mxPoint as="offset" />
            <mxPoint x="640" y="260" as="sourcePoint" />
            <Array as="points">
              <mxPoint x="640" y="280" />
              <mxPoint x="540" y="280" />
            </Array>
          </mxGeometry>
        </mxCell>
        <mxCell id="Jg6ZexL1LJRDPfhc3TXj-3" value="input_template" style="rounded=1;whiteSpace=wrap;html=1;fontSize=12;glass=0;strokeWidth=1;shadow=0;" vertex="1" parent="WIyWlLk6GJQsqaUBKTNV-1">
          <mxGeometry x="420" y="260" width="120" height="40" as="geometry" />
        </mxCell>
        <mxCell id="Jg6ZexL1LJRDPfhc3TXj-6" value="" style="edgeStyle=orthogonalEdgeStyle;rounded=0;orthogonalLoop=1;jettySize=auto;html=1;" edge="1" parent="WIyWlLk6GJQsqaUBKTNV-1" source="Jg6ZexL1LJRDPfhc3TXj-5" target="WIyWlLk6GJQsqaUBKTNV-6">
          <mxGeometry relative="1" as="geometry" />
        </mxCell>
        <mxCell id="Jg6ZexL1LJRDPfhc3TXj-5" value="Initialization" style="rounded=1;whiteSpace=wrap;html=1;fontSize=12;glass=0;strokeWidth=1;shadow=0;" vertex="1" parent="WIyWlLk6GJQsqaUBKTNV-1">
          <mxGeometry x="630" y="120" width="120" height="50" as="geometry" />
        </mxCell>
        <mxCell id="Jg6ZexL1LJRDPfhc3TXj-10" value="" style="edgeStyle=orthogonalEdgeStyle;rounded=0;orthogonalLoop=1;jettySize=auto;html=1;" edge="1" parent="WIyWlLk6GJQsqaUBKTNV-1" source="Jg6ZexL1LJRDPfhc3TXj-7" target="Jg6ZexL1LJRDPfhc3TXj-9">
          <mxGeometry relative="1" as="geometry">
            <Array as="points">
              <mxPoint x="670" y="470" />
              <mxPoint x="670" y="470" />
            </Array>
          </mxGeometry>
        </mxCell>
        <mxCell id="Jg6ZexL1LJRDPfhc3TXj-32" value="validate" style="edgeLabel;html=1;align=center;verticalAlign=middle;resizable=0;points=[];" vertex="1" connectable="0" parent="Jg6ZexL1LJRDPfhc3TXj-10">
          <mxGeometry x="0.2" y="3" relative="1" as="geometry">
            <mxPoint x="-33" as="offset" />
          </mxGeometry>
        </mxCell>
        <mxCell id="Jg6ZexL1LJRDPfhc3TXj-70" style="edgeStyle=orthogonalEdgeStyle;rounded=0;orthogonalLoop=1;jettySize=auto;html=1;exitX=0.75;exitY=0;exitDx=0;exitDy=0;entryX=0.75;entryY=1;entryDx=0;entryDy=0;" edge="1" parent="WIyWlLk6GJQsqaUBKTNV-1" source="Jg6ZexL1LJRDPfhc3TXj-7" target="WIyWlLk6GJQsqaUBKTNV-11">
          <mxGeometry relative="1" as="geometry" />
        </mxCell>
        <mxCell id="Jg6ZexL1LJRDPfhc3TXj-71" value="results" style="edgeLabel;html=1;align=center;verticalAlign=middle;resizable=0;points=[];" vertex="1" connectable="0" parent="Jg6ZexL1LJRDPfhc3TXj-70">
          <mxGeometry x="-0.2773" relative="1" as="geometry">
            <mxPoint x="20" y="1" as="offset" />
          </mxGeometry>
        </mxCell>
        <mxCell id="Jg6ZexL1LJRDPfhc3TXj-7" value="PCS" style="rounded=1;whiteSpace=wrap;html=1;fontSize=12;glass=0;strokeWidth=1;shadow=0;" vertex="1" parent="WIyWlLk6GJQsqaUBKTNV-1">
          <mxGeometry x="630" y="420" width="120" height="40" as="geometry" />
        </mxCell>
        <mxCell id="Jg6ZexL1LJRDPfhc3TXj-12" value="" style="edgeStyle=orthogonalEdgeStyle;rounded=0;orthogonalLoop=1;jettySize=auto;html=1;" edge="1" parent="WIyWlLk6GJQsqaUBKTNV-1" source="Jg6ZexL1LJRDPfhc3TXj-9" target="Jg6ZexL1LJRDPfhc3TXj-11">
          <mxGeometry relative="1" as="geometry">
            <Array as="points">
              <mxPoint x="670" y="550" />
              <mxPoint x="670" y="550" />
            </Array>
          </mxGeometry>
        </mxCell>
        <mxCell id="Jg6ZexL1LJRDPfhc3TXj-33" value="validate" style="edgeLabel;html=1;align=center;verticalAlign=middle;resizable=0;points=[];" vertex="1" connectable="0" parent="Jg6ZexL1LJRDPfhc3TXj-12">
          <mxGeometry x="0.4" y="1" relative="1" as="geometry">
            <mxPoint x="-31" y="-5" as="offset" />
          </mxGeometry>
        </mxCell>
        <mxCell id="Jg6ZexL1LJRDPfhc3TXj-29" value="" style="edgeStyle=orthogonalEdgeStyle;rounded=0;orthogonalLoop=1;jettySize=auto;html=1;" edge="1" parent="WIyWlLk6GJQsqaUBKTNV-1" source="Jg6ZexL1LJRDPfhc3TXj-9" target="Jg6ZexL1LJRDPfhc3TXj-17">
          <mxGeometry relative="1" as="geometry">
            <Array as="points">
              <mxPoint x="560" y="500" />
              <mxPoint x="560" y="500" />
            </Array>
          </mxGeometry>
        </mxCell>
        <mxCell id="Jg6ZexL1LJRDPfhc3TXj-30" value="has_required_curves" style="edgeLabel;html=1;align=center;verticalAlign=middle;resizable=0;points=[];" vertex="1" connectable="0" parent="Jg6ZexL1LJRDPfhc3TXj-29">
          <mxGeometry x="-0.2571" relative="1" as="geometry">
            <mxPoint x="-18" y="-10" as="offset" />
          </mxGeometry>
        </mxCell>
        <mxCell id="Jg6ZexL1LJRDPfhc3TXj-65" style="edgeStyle=orthogonalEdgeStyle;rounded=0;orthogonalLoop=1;jettySize=auto;html=1;exitX=0.75;exitY=0;exitDx=0;exitDy=0;entryX=0.75;entryY=1;entryDx=0;entryDy=0;" edge="1" parent="WIyWlLk6GJQsqaUBKTNV-1" source="Jg6ZexL1LJRDPfhc3TXj-9" target="Jg6ZexL1LJRDPfhc3TXj-7">
          <mxGeometry relative="1" as="geometry" />
        </mxCell>
        <mxCell id="Jg6ZexL1LJRDPfhc3TXj-68" value="results" style="edgeLabel;html=1;align=center;verticalAlign=middle;resizable=0;points=[];" vertex="1" connectable="0" parent="Jg6ZexL1LJRDPfhc3TXj-65">
          <mxGeometry x="-0.1333" y="-3" relative="1" as="geometry">
            <mxPoint x="17" y="3" as="offset" />
          </mxGeometry>
        </mxCell>
        <mxCell id="Jg6ZexL1LJRDPfhc3TXj-9" value="Becnhmark" style="whiteSpace=wrap;html=1;rounded=1;glass=0;strokeWidth=1;shadow=0;" vertex="1" parent="WIyWlLk6GJQsqaUBKTNV-1">
          <mxGeometry x="630" y="490" width="120" height="40" as="geometry" />
        </mxCell>
        <mxCell id="Jg6ZexL1LJRDPfhc3TXj-45" value="" style="edgeStyle=orthogonalEdgeStyle;rounded=0;orthogonalLoop=1;jettySize=auto;html=1;" edge="1" parent="WIyWlLk6GJQsqaUBKTNV-1" source="Jg6ZexL1LJRDPfhc3TXj-11" target="Jg6ZexL1LJRDPfhc3TXj-43">
          <mxGeometry relative="1" as="geometry" />
        </mxCell>
        <mxCell id="Jg6ZexL1LJRDPfhc3TXj-64" style="edgeStyle=orthogonalEdgeStyle;rounded=0;orthogonalLoop=1;jettySize=auto;html=1;exitX=0.75;exitY=0;exitDx=0;exitDy=0;entryX=0.75;entryY=1;entryDx=0;entryDy=0;" edge="1" parent="WIyWlLk6GJQsqaUBKTNV-1" source="Jg6ZexL1LJRDPfhc3TXj-11" target="Jg6ZexL1LJRDPfhc3TXj-9">
          <mxGeometry relative="1" as="geometry" />
        </mxCell>
        <mxCell id="Jg6ZexL1LJRDPfhc3TXj-67" value="results" style="edgeLabel;html=1;align=center;verticalAlign=middle;resizable=0;points=[];" vertex="1" connectable="0" parent="Jg6ZexL1LJRDPfhc3TXj-64">
          <mxGeometry x="0.2" relative="1" as="geometry">
            <mxPoint x="20" y="8" as="offset" />
          </mxGeometry>
        </mxCell>
        <mxCell id="Jg6ZexL1LJRDPfhc3TXj-11" value="Operating Cond." style="whiteSpace=wrap;html=1;rounded=1;glass=0;strokeWidth=1;shadow=0;" vertex="1" parent="WIyWlLk6GJQsqaUBKTNV-1">
          <mxGeometry x="630" y="560" width="120" height="40" as="geometry" />
        </mxCell>
        <mxCell id="Jg6ZexL1LJRDPfhc3TXj-16" value="" style="edgeStyle=orthogonalEdgeStyle;rounded=0;orthogonalLoop=1;jettySize=auto;html=1;" edge="1" parent="WIyWlLk6GJQsqaUBKTNV-1" source="Jg6ZexL1LJRDPfhc3TXj-13" target="Jg6ZexL1LJRDPfhc3TXj-15">
          <mxGeometry relative="1" as="geometry" />
        </mxCell>
        <mxCell id="Jg6ZexL1LJRDPfhc3TXj-34" value="copy_output_files" style="edgeLabel;html=1;align=center;verticalAlign=middle;resizable=0;points=[];" vertex="1" connectable="0" parent="Jg6ZexL1LJRDPfhc3TXj-16">
          <mxGeometry x="0.24" y="3" relative="1" as="geometry">
            <mxPoint x="47" as="offset" />
          </mxGeometry>
        </mxCell>
        <mxCell id="Jg6ZexL1LJRDPfhc3TXj-13" value="report" style="whiteSpace=wrap;html=1;rounded=1;glass=0;strokeWidth=1;shadow=0;" vertex="1" parent="WIyWlLk6GJQsqaUBKTNV-1">
          <mxGeometry x="930" y="400" width="120" height="40" as="geometry" />
        </mxCell>
        <mxCell id="Jg6ZexL1LJRDPfhc3TXj-15" value="Output files" style="whiteSpace=wrap;html=1;rounded=1;glass=0;strokeWidth=1;shadow=0;" vertex="1" parent="WIyWlLk6GJQsqaUBKTNV-1">
          <mxGeometry x="930" y="470" width="120" height="40" as="geometry" />
        </mxCell>
        <mxCell id="Jg6ZexL1LJRDPfhc3TXj-36" value="" style="edgeStyle=orthogonalEdgeStyle;rounded=0;orthogonalLoop=1;jettySize=auto;html=1;" edge="1" parent="WIyWlLk6GJQsqaUBKTNV-1" source="Jg6ZexL1LJRDPfhc3TXj-17" target="Jg6ZexL1LJRDPfhc3TXj-35">
          <mxGeometry relative="1" as="geometry">
            <Array as="points">
              <mxPoint x="420" y="560" />
              <mxPoint x="420" y="560" />
            </Array>
          </mxGeometry>
        </mxCell>
        <mxCell id="Jg6ZexL1LJRDPfhc3TXj-37" value="obtain_reference_curves" style="edgeLabel;html=1;align=center;verticalAlign=middle;resizable=0;points=[];" vertex="1" connectable="0" parent="Jg6ZexL1LJRDPfhc3TXj-36">
          <mxGeometry x="-0.0571" relative="1" as="geometry">
            <mxPoint x="-70" y="-13" as="offset" />
          </mxGeometry>
        </mxCell>
        <mxCell id="Jg6ZexL1LJRDPfhc3TXj-39" value="" style="edgeStyle=orthogonalEdgeStyle;rounded=0;orthogonalLoop=1;jettySize=auto;html=1;entryX=0.5;entryY=0;entryDx=0;entryDy=0;" edge="1" parent="WIyWlLk6GJQsqaUBKTNV-1" source="Jg6ZexL1LJRDPfhc3TXj-17" target="Jg6ZexL1LJRDPfhc3TXj-52">
          <mxGeometry relative="1" as="geometry">
            <mxPoint x="430" y="600" as="targetPoint" />
          </mxGeometry>
        </mxCell>
        <mxCell id="Jg6ZexL1LJRDPfhc3TXj-40" value="obtain_simulated_curves" style="edgeLabel;html=1;align=center;verticalAlign=middle;resizable=0;points=[];" vertex="1" connectable="0" parent="Jg6ZexL1LJRDPfhc3TXj-39">
          <mxGeometry x="-0.1077" y="2" relative="1" as="geometry">
            <mxPoint x="18" y="-14" as="offset" />
          </mxGeometry>
        </mxCell>
        <mxCell id="Jg6ZexL1LJRDPfhc3TXj-57" style="edgeStyle=orthogonalEdgeStyle;rounded=0;orthogonalLoop=1;jettySize=auto;html=1;exitX=1;exitY=0.75;exitDx=0;exitDy=0;entryX=0;entryY=0.75;entryDx=0;entryDy=0;" edge="1" parent="WIyWlLk6GJQsqaUBKTNV-1" source="Jg6ZexL1LJRDPfhc3TXj-17" target="Jg6ZexL1LJRDPfhc3TXj-9">
          <mxGeometry relative="1" as="geometry" />
        </mxCell>
        <mxCell id="Jg6ZexL1LJRDPfhc3TXj-58" value="Instance" style="edgeLabel;html=1;align=center;verticalAlign=middle;resizable=0;points=[];" vertex="1" connectable="0" parent="Jg6ZexL1LJRDPfhc3TXj-57">
          <mxGeometry x="-0.1143" y="-3" relative="1" as="geometry">
            <mxPoint x="-2" y="7" as="offset" />
          </mxGeometry>
        </mxCell>
        <mxCell id="Jg6ZexL1LJRDPfhc3TXj-17" value="Curves Manager" style="whiteSpace=wrap;html=1;rounded=1;glass=0;strokeWidth=1;shadow=0;" vertex="1" parent="WIyWlLk6GJQsqaUBKTNV-1">
          <mxGeometry x="370" y="490" width="120" height="40" as="geometry" />
        </mxCell>
        <mxCell id="Jg6ZexL1LJRDPfhc3TXj-35" value="ImportedCruves" style="whiteSpace=wrap;html=1;rounded=1;glass=0;strokeWidth=1;shadow=0;" vertex="1" parent="WIyWlLk6GJQsqaUBKTNV-1">
          <mxGeometry x="370" y="600" width="120" height="40" as="geometry" />
        </mxCell>
        <mxCell id="Jg6ZexL1LJRDPfhc3TXj-60" style="edgeStyle=orthogonalEdgeStyle;rounded=0;orthogonalLoop=1;jettySize=auto;html=1;exitX=0.25;exitY=0;exitDx=0;exitDy=0;entryX=0;entryY=0.5;entryDx=0;entryDy=0;" edge="1" parent="WIyWlLk6GJQsqaUBKTNV-1" source="Jg6ZexL1LJRDPfhc3TXj-41" target="Jg6ZexL1LJRDPfhc3TXj-11">
          <mxGeometry relative="1" as="geometry" />
        </mxCell>
        <mxCell id="Jg6ZexL1LJRDPfhc3TXj-63" value="results" style="edgeLabel;html=1;align=center;verticalAlign=middle;resizable=0;points=[];" vertex="1" connectable="0" parent="Jg6ZexL1LJRDPfhc3TXj-60">
          <mxGeometry x="0.5333" y="1" relative="1" as="geometry">
            <mxPoint x="-4" y="-9" as="offset" />
          </mxGeometry>
        </mxCell>
        <mxCell id="Jg6ZexL1LJRDPfhc3TXj-41" value="performance" style="whiteSpace=wrap;html=1;rounded=1;glass=0;strokeWidth=1;shadow=0;" vertex="1" parent="WIyWlLk6GJQsqaUBKTNV-1">
          <mxGeometry x="510" y="730" width="120" height="40" as="geometry" />
        </mxCell>
        <mxCell id="Jg6ZexL1LJRDPfhc3TXj-46" value="" style="edgeStyle=orthogonalEdgeStyle;rounded=0;orthogonalLoop=1;jettySize=auto;html=1;" edge="1" parent="WIyWlLk6GJQsqaUBKTNV-1" source="Jg6ZexL1LJRDPfhc3TXj-43" target="Jg6ZexL1LJRDPfhc3TXj-41">
          <mxGeometry relative="1" as="geometry" />
        </mxCell>
        <mxCell id="Jg6ZexL1LJRDPfhc3TXj-47" value="performance" style="edgeLabel;html=1;align=center;verticalAlign=middle;resizable=0;points=[];" vertex="1" connectable="0" parent="Jg6ZexL1LJRDPfhc3TXj-46">
          <mxGeometry x="-0.1538" y="1" relative="1" as="geometry">
            <mxPoint x="5" y="-11" as="offset" />
          </mxGeometry>
        </mxCell>
        <mxCell id="Jg6ZexL1LJRDPfhc3TXj-43" value="performance or validate" style="rhombus;whiteSpace=wrap;html=1;shadow=0;fontFamily=Helvetica;fontSize=12;align=center;strokeWidth=1;spacing=6;spacingTop=-4;" vertex="1" parent="WIyWlLk6GJQsqaUBKTNV-1">
          <mxGeometry x="640" y="630" width="100" height="80" as="geometry" />
        </mxCell>
        <mxCell id="Jg6ZexL1LJRDPfhc3TXj-61" style="edgeStyle=orthogonalEdgeStyle;rounded=0;orthogonalLoop=1;jettySize=auto;html=1;exitX=0.75;exitY=0;exitDx=0;exitDy=0;entryX=1;entryY=0.5;entryDx=0;entryDy=0;" edge="1" parent="WIyWlLk6GJQsqaUBKTNV-1" source="Jg6ZexL1LJRDPfhc3TXj-50" target="Jg6ZexL1LJRDPfhc3TXj-11">
          <mxGeometry relative="1" as="geometry" />
        </mxCell>
        <mxCell id="Jg6ZexL1LJRDPfhc3TXj-62" value="results" style="edgeLabel;html=1;align=center;verticalAlign=middle;resizable=0;points=[];" vertex="1" connectable="0" parent="Jg6ZexL1LJRDPfhc3TXj-61">
          <mxGeometry x="0.3407" y="2" relative="1" as="geometry">
            <mxPoint x="1" y="-12" as="offset" />
          </mxGeometry>
        </mxCell>
        <mxCell id="Jg6ZexL1LJRDPfhc3TXj-50" value="model" style="rounded=1;whiteSpace=wrap;html=1;" vertex="1" parent="WIyWlLk6GJQsqaUBKTNV-1">
          <mxGeometry x="780" y="730" width="120" height="40" as="geometry" />
        </mxCell>
        <mxCell id="Jg6ZexL1LJRDPfhc3TXj-51" style="edgeStyle=orthogonalEdgeStyle;rounded=0;orthogonalLoop=1;jettySize=auto;html=1;entryX=0.558;entryY=0;entryDx=0;entryDy=0;entryPerimeter=0;" edge="1" parent="WIyWlLk6GJQsqaUBKTNV-1" source="Jg6ZexL1LJRDPfhc3TXj-43" target="Jg6ZexL1LJRDPfhc3TXj-50">
          <mxGeometry relative="1" as="geometry" />
        </mxCell>
        <mxCell id="Jg6ZexL1LJRDPfhc3TXj-59" value="validate" style="edgeLabel;html=1;align=center;verticalAlign=middle;resizable=0;points=[];" vertex="1" connectable="0" parent="Jg6ZexL1LJRDPfhc3TXj-51">
          <mxGeometry x="-0.2934" y="1" relative="1" as="geometry">
            <mxPoint y="-9" as="offset" />
          </mxGeometry>
        </mxCell>
        <mxCell id="Jg6ZexL1LJRDPfhc3TXj-54" value="" style="edgeStyle=orthogonalEdgeStyle;rounded=0;orthogonalLoop=1;jettySize=auto;html=1;" edge="1" parent="WIyWlLk6GJQsqaUBKTNV-1" source="Jg6ZexL1LJRDPfhc3TXj-52" target="Jg6ZexL1LJRDPfhc3TXj-53">
          <mxGeometry relative="1" as="geometry" />
        </mxCell>
        <mxCell id="Jg6ZexL1LJRDPfhc3TXj-52" value="ProducerCurves" style="rhombus;whiteSpace=wrap;html=1;shadow=0;fontFamily=Helvetica;fontSize=12;align=center;strokeWidth=1;spacing=6;spacingTop=-4;" vertex="1" parent="WIyWlLk6GJQsqaUBKTNV-1">
          <mxGeometry x="230" y="630" width="100" height="80" as="geometry" />
        </mxCell>
        <mxCell id="Jg6ZexL1LJRDPfhc3TXj-53" value="ImportedCur&lt;span style=&quot;background-color: transparent; color: light-dark(rgb(0, 0, 0), rgb(255, 255, 255));&quot;&gt;ves&lt;/span&gt;" style="rounded=1;whiteSpace=wrap;html=1;shadow=0;strokeWidth=1;spacing=6;spacingTop=-4;" vertex="1" parent="WIyWlLk6GJQsqaUBKTNV-1">
          <mxGeometry x="100" y="730" width="120" height="40" as="geometry" />
        </mxCell>
        <mxCell id="Jg6ZexL1LJRDPfhc3TXj-55" value="DynawoCurves" style="rounded=1;whiteSpace=wrap;html=1;shadow=0;strokeWidth=1;spacing=6;spacingTop=-4;" vertex="1" parent="WIyWlLk6GJQsqaUBKTNV-1">
          <mxGeometry x="330" y="730" width="120" height="40" as="geometry" />
        </mxCell>
        <mxCell id="Jg6ZexL1LJRDPfhc3TXj-56" style="edgeStyle=orthogonalEdgeStyle;rounded=0;orthogonalLoop=1;jettySize=auto;html=1;exitX=1;exitY=0.5;exitDx=0;exitDy=0;entryX=0.575;entryY=-0.05;entryDx=0;entryDy=0;entryPerimeter=0;" edge="1" parent="WIyWlLk6GJQsqaUBKTNV-1" source="Jg6ZexL1LJRDPfhc3TXj-52" target="Jg6ZexL1LJRDPfhc3TXj-55">
          <mxGeometry relative="1" as="geometry" />
        </mxCell>
      </root>
    </mxGraphModel>
  </diagram>
</mxfile>
